<svg width="41" height="27" viewBox="0 0 41 27" fill="none" xmlns="http://www.w3.org/2000/svg">
<path d="M37.1904 3.26703H3.44043V6.23397H37.1904V3.26703Z" fill="white"/>
<path d="M19.2617 9.50869L17.5065 17.6709H15.3835L17.1391 9.50869H19.2617ZM28.1932 14.7791L29.3105 11.7141L29.9534 14.7791H28.1932ZM30.5627 17.6709H32.5258L30.8108 9.50869H28.9999C28.5916 9.50869 28.2479 9.74428 28.0956 10.1072L24.91 17.6709H27.1396L27.5821 16.4521H30.3054L30.5627 17.6709ZM25.0208 15.0062C25.0301 12.8523 22.0269 12.7328 22.0471 11.7705C22.0537 11.4779 22.3338 11.1662 22.9472 11.0866C23.2512 11.0476 24.09 11.0162 25.0409 11.452L25.4129 9.72028C24.9021 9.53671 24.2448 9.35974 23.4271 9.35974C21.3284 9.35974 19.8521 10.4686 19.8402 12.0576C19.8266 13.2328 20.8951 13.888 21.6979 14.2791C22.5258 14.679 22.8031 14.9361 22.7994 15.2933C22.7937 15.841 22.1388 16.0835 21.5297 16.0926C20.4616 16.1092 19.8426 15.8055 19.3492 15.5767L18.9638 17.3659C19.4608 17.5921 20.3764 17.7889 21.324 17.7991C23.5551 17.7991 25.0142 16.7033 25.0208 15.0062ZM16.2283 9.50869L12.7886 17.6709H10.5448L8.85193 11.157C8.74935 10.7563 8.65998 10.6092 8.34807 10.4399C7.83729 10.1641 6.99463 9.90627 6.25342 9.74589L6.30366 9.50869H9.91616C10.3762 9.50869 10.7902 9.81352 10.8955 10.3406L11.7897 15.0642L13.9981 9.50869H16.2283Z" fill="white"/>
<path d="M37.1909 20.9247H3.44092V23.892H37.1909V20.9247Z" fill="white"/>
<rect x="0.62793" y="0.5625" width="39.375" height="25.875" stroke="white" stroke-width="1.125"/>
</svg>
