<svg width="41" height="27" viewBox="0 0 41 27" fill="none" xmlns="http://www.w3.org/2000/svg">
<path fill-rule="evenodd" clip-rule="evenodd" d="M1.92574 0.0199585C0.862181 0.0199585 0 0.88214 0 1.94569V25.0545C0 26.1181 0.862182 26.9803 1.92574 26.9803H38.5147C39.5783 26.9803 40.4404 26.1181 40.4404 25.0545V1.94569C40.4404 0.88214 39.5783 0.0199585 38.5147 0.0199585H1.92574ZM19.9689 19.5026C19.241 19.5026 18.5651 19.416 17.9411 19.2427C17.3172 19.0693 16.7741 18.8151 16.3119 18.4801C15.8498 18.1334 15.4858 17.7175 15.2201 17.2322C14.9659 16.7353 14.8388 16.175 14.8388 15.551C14.8388 14.9617 14.9601 14.4129 15.2027 13.9045C15.4454 13.3846 15.8902 12.9224 16.5373 12.518C16.0982 12.2176 15.7631 11.8709 15.532 11.4781C15.3009 11.0737 15.1854 10.5422 15.1854 9.88358C15.1854 9.40985 15.2952 8.97078 15.5147 8.56638C15.7458 8.15042 16.0693 7.79223 16.4853 7.49182C16.9012 7.17985 17.4038 6.93721 17.9931 6.76389C18.5824 6.59058 19.241 6.50392 19.9689 6.50392C20.6968 6.50392 21.3554 6.59058 21.9447 6.76389C22.534 6.93721 23.0308 7.17985 23.4352 7.49182C23.8512 7.79223 24.1689 8.15042 24.3885 8.56638C24.6196 8.97078 24.7351 9.40985 24.7351 9.88358C24.7351 10.5422 24.6196 11.0737 24.3885 11.4781C24.1574 11.8709 23.8281 12.2176 23.4006 12.518C24.0476 12.9224 24.4925 13.3846 24.7351 13.9045C24.9778 14.4129 25.0991 14.9617 25.0991 15.551C25.0991 16.175 24.9662 16.7353 24.7004 17.2322C24.4463 17.7175 24.0881 18.1334 23.6259 18.4801C23.1637 18.8151 22.6207 19.0693 21.9967 19.2427C21.3728 19.416 20.6968 19.5026 19.9689 19.5026ZM19.9689 17.3882C20.3271 17.3882 20.6391 17.3362 20.9048 17.2322C21.1821 17.1282 21.4132 16.9895 21.5981 16.8162C21.783 16.6314 21.9216 16.4234 22.014 16.1923C22.118 15.9612 22.17 15.7128 22.17 15.447C22.17 14.9271 21.9794 14.488 21.5981 14.1298C21.2283 13.7601 20.6853 13.5752 19.9689 13.5752C19.2525 13.5752 18.7037 13.7601 18.3224 14.1298C17.9527 14.488 17.7678 14.9271 17.7678 15.447C17.7678 15.7128 17.814 15.9612 17.9065 16.1923C18.0104 16.4234 18.1549 16.6314 18.3397 16.8162C18.5246 16.9895 18.7499 17.1282 19.0157 17.2322C19.293 17.3362 19.6107 17.3882 19.9689 17.3882ZM19.9689 11.7034C20.616 11.7034 21.1013 11.559 21.4248 11.2701C21.7483 10.9697 21.9101 10.6 21.9101 10.1609C21.9101 9.71027 21.7483 9.34053 21.4248 9.05167C21.1013 8.76281 20.616 8.61838 19.9689 8.61838C19.3219 8.61838 18.8366 8.76281 18.5131 9.05167C18.1895 9.34053 18.0278 9.71027 18.0278 10.1609C18.0278 10.6 18.1895 10.9697 18.5131 11.2701C18.8366 11.559 19.3219 11.7034 19.9689 11.7034ZM9.89857 19.2773V10.8368H7.03885V8.7397C7.5588 8.72814 8.00942 8.68192 8.39072 8.60104C8.78357 8.50861 9.11865 8.38151 9.39595 8.21975C9.67326 8.05799 9.90435 7.85578 10.0892 7.61314C10.2741 7.35894 10.4359 7.05853 10.5745 6.7119H12.741V19.2773H9.89857ZM29.7755 17.3516V14.6555H26.9177V12.7818H29.7755V10.0993H31.865V12.7818H34.7093V14.6555H31.865V17.3516H29.7755Z" fill="white"/>
</svg>
