<svg width="28" height="27" viewBox="0 0 28 27" fill="none" xmlns="http://www.w3.org/2000/svg">
<path fill-rule="evenodd" clip-rule="evenodd" d="M21.7587 0.828706H5.58249C3.05123 0.828706 0.999238 2.8807 0.999238 5.41196V21.5881C0.999238 24.1194 3.05123 26.1714 5.58249 26.1714H21.7587C24.2899 26.1714 26.3419 24.1194 26.3419 21.5881V5.41196C26.3419 2.8807 24.2899 0.828706 21.7587 0.828706ZM5.58249 0.0198975C2.60454 0.0198975 0.19043 2.434 0.19043 5.41196V21.5881C0.19043 24.5661 2.60454 26.9802 5.58249 26.9802H21.7587C24.7366 26.9802 27.1507 24.5661 27.1507 21.5881V5.41196C27.1507 2.434 24.7366 0.0198975 21.7587 0.0198975H5.58249Z" fill="white"/>
<path fill-rule="evenodd" clip-rule="evenodd" d="M16.5387 7.73395L16.5323 7.72631C16.459 7.63871 16.3979 7.56566 16.3417 7.49789C16.3084 7.45769 16.2768 7.41935 16.2454 7.38094C15.5928 6.58181 14.8211 5.92555 13.8276 5.6107C11.069 4.74708 7.30037 5.46655 5.64291 8.87552C4.41626 11.3956 4.38965 14.0408 5.15377 16.6899C5.84945 19.1012 7.33458 20.836 9.86515 21.3974C12.4705 21.9753 14.7007 21.2419 16.438 19.1657C16.5771 19.0249 16.7235 18.8916 16.8765 18.7661V21.5251H21.7589V5.81554C21.4418 5.81554 21.1266 5.81513 20.8129 5.81473H20.8086C19.5559 5.81311 18.3279 5.81153 17.1008 5.83577C16.9741 5.83577 16.7764 6.11775 16.7612 6.28213C16.7291 6.63378 16.734 6.98855 16.7397 7.40732V7.40762C16.7421 7.58505 16.7447 7.77398 16.7447 7.97902H16.7434C16.6648 7.88473 16.5978 7.80461 16.5387 7.73395ZM10.0235 13.3694C10.0235 11.5069 10.7839 10.255 12.217 9.76191C14.9364 8.82494 17.3783 10.7735 17.0628 13.6273C17.0349 13.8802 16.9981 14.1331 16.9474 14.3746C16.5673 16.2524 15.105 17.36 13.2726 17.1767C11.292 16.9794 10.0818 15.6985 10.0312 13.7475C10.0245 13.6536 10.0243 13.559 10.024 13.4642C10.0239 13.4326 10.0239 13.401 10.0235 13.3694Z" fill="white"/>
</svg>
