<svg width="459" height="200" viewBox="0 0 459 200" fill="none" xmlns="http://www.w3.org/2000/svg">
<path d="M458.22 0H0V100H458.22V0Z" fill="#FF267E"/>
<path d="M77.9188 48.1455H44.4006V38.4318H84.9212V25.0013H24.9731V74.9988H44.4006V61.5709H77.9188V48.1455Z" fill="#000055"/>
<path d="M184.421 58.2876L166.634 25.0013H144.352L173.206 74.9988H195.349L224.203 25.0013H202.206L184.421 58.2876Z" fill="#000055"/>
<path d="M271.59 62.9971H248.335V55.4252H271.59C274.089 55.4252 275.873 56.9975 275.873 59.2099C275.873 61.4248 274.089 62.9971 271.59 62.9971ZM248.335 37.0031H270.02C272.519 37.0031 274.306 38.5729 274.306 40.7852C274.306 43.0001 272.519 44.5725 270.02 44.5725H248.335V37.0031ZM286.431 49.6095C291.496 47.1426 293.875 43.2496 293.875 38.8576C293.875 30.6431 286.948 25.0013 273.306 25.0013H229.406V74.9988H274.306C288.948 74.9988 295.444 69.2134 295.444 60.8553C295.444 56.1811 292.617 51.9378 286.431 49.6095Z" fill="#000055"/>
<path d="M324.088 55.4277H357.536V44.575H324.088V38.4343H361.068V25.0013H304.661V75.0014H361.948V61.5709H324.088V55.4277Z" fill="#000055"/>
<path d="M370.006 25.0013V38.4292H391.802V74.9988H411.446V38.4292H433.245V25.0013H370.006Z" fill="#000055"/>
<path d="M110.103 54.6365L118.635 38.5426L127.164 54.6365H110.103ZM107.527 25.0013L78.6709 74.9988H99.3129L103.216 67.636H134.053L137.956 74.9988H159.453L130.599 25.0013H107.527Z" fill="#000055"/>
<path d="M113.236 100H0V200H113.236V100Z" fill="#FF267E"/>
<path d="M19.0933 149.974L35.545 178.994L56.6475 178.997L40.1958 149.976L19.0933 149.974Z" fill="#000055"/>
<path d="M73.091 149.957L56.6412 178.978L77.7424 178.977L94.1923 149.955L73.091 149.957Z" fill="#000055"/>
<path d="M56.5986 121.026L40.147 149.98H73.0477L56.5986 121.026Z" fill="#000055"/>
</svg>
