<svg width="36" height="27" viewBox="0 0 36 27" fill="none" xmlns="http://www.w3.org/2000/svg">
<path d="M35.1954 17.3862V16.9698H35.0913L34.9698 17.2474L34.8484 16.9698H34.7443V17.3862H34.8137V17.0739L34.9351 17.3515H35.0219L35.1433 17.0739V17.3862H35.1954ZM34.5014 17.3862V17.0392H34.6402V16.9698H34.2932V17.0392H34.432V17.3862H34.5014Z" fill="#EDEDED"/>
<path d="M22.8599 19.1731H13.4741V2.30994H22.8599V19.1731Z" fill="#CBCACA"/>
<path d="M14.0815 10.7416C14.0815 7.32381 15.6776 4.27039 18.1759 2.30996C16.3542 0.869997 14.0468 0.0198975 11.5486 0.0198975C5.63257 0.0198975 0.826904 4.82556 0.826904 10.7416C0.826904 16.6576 5.63257 21.4632 11.5486 21.4632C14.0468 21.4632 16.3542 20.6131 18.1759 19.1732C15.6776 17.2127 14.0815 14.1593 14.0815 10.7416Z" fill="#8C8C8C"/>
<path d="M35.525 10.7416C35.525 16.6576 30.7193 21.4632 24.8033 21.4632C22.3051 21.4632 19.9977 20.6131 18.176 19.1732C20.6743 17.2127 22.2704 14.1593 22.2704 10.7416C22.2704 7.32381 20.6743 4.27039 18.176 2.30996C19.9977 0.869997 22.3051 0.0198975 24.8033 0.0198975C30.7193 0.0198975 35.525 4.82556 35.525 10.7416Z" fill="#EDEDED"/>
<path d="M26.0178 23.9441C26.1393 23.9441 26.3301 23.9614 26.4516 24.0135L26.2607 24.6033C26.1219 24.5513 26.0005 24.5339 25.8791 24.5339C25.48 24.5339 25.2718 24.7942 25.2718 25.2626V26.8587H24.6473V24.0135H25.2545V24.3604C25.428 24.1002 25.6709 23.9441 26.0178 23.9441ZM23.7278 24.5686H22.7215V25.8524C22.7215 26.13 22.8256 26.3209 23.1379 26.3209C23.2941 26.3209 23.5022 26.2688 23.6931 26.1647L23.8666 26.7026C23.6757 26.8413 23.3635 26.9281 23.0859 26.9281C22.3572 26.9281 22.097 26.5291 22.097 25.8698V24.5686H21.5245V23.9961H22.097V23.1287H22.7215V23.9961H23.7278V24.5686ZM15.7993 25.1758C15.8687 24.7595 16.1116 24.4819 16.5627 24.4819C16.9617 24.4819 17.2219 24.7248 17.2913 25.1758H15.7993ZM17.9332 25.4361C17.9332 24.5513 17.3781 23.9441 16.58 23.9441C15.7473 23.9441 15.1574 24.5513 15.1574 25.4361C15.1574 26.3382 15.7646 26.9281 16.6147 26.9281C17.0484 26.9281 17.4301 26.824 17.7771 26.5291L17.4648 26.078C17.2219 26.2688 16.927 26.3729 16.6321 26.3729C16.233 26.3729 15.8687 26.1821 15.782 25.679H17.8985C17.9159 25.5922 17.9332 25.5228 17.9332 25.4361ZM20.657 24.7421C20.4835 24.638 20.1365 24.4992 19.7722 24.4992C19.4252 24.4992 19.2344 24.6207 19.2344 24.8289C19.2344 25.0197 19.4426 25.0717 19.7202 25.1064L20.0151 25.1411C20.6397 25.2279 21.004 25.4881 21.004 25.9912C21.004 26.5291 20.5356 26.9281 19.7028 26.9281C19.2344 26.9281 18.8007 26.8066 18.471 26.5638L18.766 26.078C18.9742 26.2341 19.2864 26.3729 19.7202 26.3729C20.1365 26.3729 20.3621 26.2515 20.3621 26.0259C20.3621 25.8698 20.2059 25.7831 19.859 25.731L19.564 25.6963C18.9221 25.6096 18.5751 25.3146 18.5751 24.8636C18.5751 24.291 19.0436 23.9441 19.7549 23.9441C20.2059 23.9441 20.6223 24.0482 20.9173 24.239L20.657 24.7421ZM28.2906 24.5166C28.1691 24.5166 28.0477 24.5339 27.9436 24.586C27.8395 24.638 27.7354 24.6901 27.666 24.7768C27.5966 24.8636 27.5272 24.9503 27.4752 25.0717C27.4231 25.1758 27.4058 25.3146 27.4058 25.4361C27.4058 25.5749 27.4231 25.6963 27.4752 25.8004C27.5272 25.9045 27.5793 26.0086 27.666 26.0953C27.7527 26.1821 27.8395 26.2341 27.9436 26.2862C28.0477 26.3382 28.1691 26.3556 28.2906 26.3556C28.412 26.3556 28.5334 26.3382 28.6375 26.2862C28.7416 26.2341 28.8457 26.1821 28.9151 26.0953C29.0019 26.0086 29.0539 25.9218 29.106 25.8004C29.158 25.6963 29.1754 25.5575 29.1754 25.4361C29.1754 25.2973 29.158 25.1758 29.106 25.0717C29.0539 24.9677 29.0019 24.8636 28.9151 24.7768C28.8284 24.6901 28.7416 24.638 28.6375 24.586C28.5334 24.5513 28.412 24.5166 28.2906 24.5166ZM28.2906 23.9441C28.5161 23.9441 28.7243 23.9788 28.8978 24.0655C29.0886 24.1349 29.2448 24.239 29.3835 24.3778C29.5223 24.5166 29.6264 24.6727 29.7132 24.8462C29.7826 25.0371 29.8346 25.2279 29.8346 25.4361C29.8346 25.6443 29.7999 25.8524 29.7132 26.0259C29.6438 26.2168 29.5223 26.3729 29.3835 26.4944C29.2448 26.6332 29.0886 26.7372 28.8978 26.8066C28.7069 26.876 28.4987 26.9281 28.2906 26.9281C28.065 26.9281 27.8568 26.8934 27.6833 26.8066C27.4925 26.7372 27.3364 26.6332 27.1976 26.4944C27.0588 26.3556 26.9547 26.1994 26.8679 26.0259C26.7986 25.8351 26.7465 25.6443 26.7465 25.4361C26.7465 25.2279 26.7812 25.0197 26.8679 24.8462C26.9373 24.6554 27.0588 24.4992 27.1976 24.3778C27.3364 24.239 27.4925 24.1349 27.6833 24.0655C27.8568 23.9788 28.065 23.9441 28.2906 23.9441ZM12.1907 25.4361C12.1907 24.933 12.5204 24.5166 13.0582 24.5166C13.5786 24.5166 13.9083 24.9156 13.9083 25.4361C13.9083 25.9565 13.5613 26.3382 13.0582 26.3382C12.5204 26.3382 12.1907 25.9392 12.1907 25.4361ZM14.4981 25.4361V24.0135H13.8736V24.3604C13.6827 24.1002 13.3878 23.9441 12.9714 23.9441C12.1734 23.9441 11.5488 24.5686 11.5488 25.4361C11.5488 26.3035 12.1734 26.9281 12.9714 26.9281C13.3705 26.9281 13.6654 26.7719 13.8736 26.5117V26.8587H14.4981V25.4361ZM11.011 26.8587V25.0717C11.011 24.3951 10.5773 23.9441 9.88331 23.9441C9.51898 23.9441 9.1373 24.0482 8.87707 24.4472C8.68623 24.1349 8.37395 23.9441 7.94022 23.9441C7.64529 23.9441 7.33301 24.0308 7.10747 24.3604V24.0135H6.48291V26.8587H7.10747V25.2799C7.10747 24.7942 7.38506 24.5166 7.80143 24.5166C8.21781 24.5166 8.42599 24.7768 8.42599 25.2626V26.8413H9.05056V25.2626C9.05056 24.7768 9.34549 24.4992 9.74452 24.4992C10.1609 24.4992 10.3691 24.7595 10.3691 25.2452V26.824H11.011V26.8587Z" fill="#EDEDED"/>
<path d="M30.4934 26.6332V26.7026H30.5628C30.5801 26.7026 30.5975 26.7026 30.5975 26.6853C30.6148 26.6853 30.6148 26.6679 30.6148 26.6506C30.6148 26.6332 30.6148 26.6332 30.5975 26.6332C30.5975 26.6332 30.5801 26.6159 30.5628 26.6159H30.4934V26.6332ZM30.5628 26.5985C30.5975 26.5985 30.6148 26.5985 30.6322 26.6159C30.6495 26.6332 30.6669 26.6506 30.6669 26.6853C30.6669 26.7026 30.6669 26.72 30.6495 26.7373C30.6322 26.7547 30.6148 26.7547 30.5801 26.7547L30.6669 26.8588H30.5975L30.5107 26.7547H30.4934V26.8588H30.4413V26.5985H30.5628ZM30.5454 26.9455C30.5801 26.9455 30.5975 26.9455 30.6322 26.9282C30.6669 26.9108 30.6842 26.8935 30.7016 26.8761C30.7189 26.8588 30.7363 26.8414 30.7536 26.8067C30.771 26.772 30.771 26.7547 30.771 26.72C30.771 26.6853 30.771 26.6679 30.7536 26.6332C30.7363 26.5985 30.7189 26.5812 30.7016 26.5638C30.6842 26.5465 30.6669 26.5291 30.6322 26.5118C30.6148 26.4944 30.5801 26.4944 30.5454 26.4944C30.5107 26.4944 30.4934 26.4944 30.4587 26.5118C30.424 26.5291 30.4066 26.5465 30.3893 26.5638C30.3719 26.5812 30.3546 26.6159 30.3372 26.6332C30.3199 26.6679 30.3199 26.6853 30.3199 26.72C30.3199 26.7547 30.3199 26.772 30.3372 26.8067C30.3546 26.8414 30.3719 26.8588 30.3893 26.8761C30.4066 26.8935 30.4413 26.9108 30.4587 26.9282C30.4934 26.9455 30.5107 26.9455 30.5454 26.9455ZM30.5454 26.4424C30.5801 26.4424 30.6148 26.4424 30.6495 26.4597C30.6842 26.4771 30.7189 26.4944 30.7363 26.5118C30.7536 26.5291 30.7883 26.5638 30.8057 26.5985C30.823 26.6332 30.823 26.6679 30.823 26.7026C30.823 26.7373 30.823 26.772 30.8057 26.8067C30.7883 26.8414 30.771 26.8761 30.7363 26.8935C30.7016 26.9108 30.6842 26.9455 30.6495 26.9629C30.6148 26.9802 30.5801 26.9802 30.5454 26.9802C30.5107 26.9802 30.4587 26.9802 30.424 26.9629C30.3893 26.9455 30.3546 26.9282 30.3372 26.8935C30.3199 26.8761 30.2852 26.8414 30.2678 26.8067C30.2505 26.772 30.2505 26.7373 30.2505 26.7026C30.2505 26.6679 30.2505 26.6332 30.2678 26.5985C30.2852 26.5638 30.3025 26.5291 30.3372 26.5118C30.3546 26.4944 30.3893 26.4597 30.424 26.4597C30.4587 26.4424 30.5107 26.4424 30.5454 26.4424Z" fill="#EDEDED"/>
</svg>
