<svg width="108" height="17" viewBox="0 0 108 17" fill="none" xmlns="http://www.w3.org/2000/svg">
<g opacity="0.8" clip-path="url(#clip0_1_525)">
<path d="M78.2295 8.41313V16.5762H80.021H81.8126L81.8704 13.4266C81.9137 10.4647 81.9282 10.248 82.2605 9.58342C83.0696 7.93635 85.2657 7.97969 85.7424 9.65566C85.8291 9.93017 85.8869 11.5628 85.8869 13.2821V16.4173L86.3637 16.504C86.6093 16.5473 87.4473 16.5762 88.1986 16.5473L89.5711 16.504V12.603C89.5567 10.0024 89.4989 8.49982 89.3833 8.10972C89.0944 7.12726 88.632 6.56379 87.6929 6.10146C86.9416 5.72581 86.6671 5.66802 85.6702 5.66802C84.2543 5.66802 83.503 6.00032 82.4772 7.04058L81.7692 7.76297L81.8126 4.0065L81.8559 0.250031H80.0355H78.2295V8.41313Z" fill="white"/>
<path d="M32.442 0.784628C31.7918 1.11693 31.3584 2.05605 31.4884 2.86514C31.6762 3.96318 32.7165 4.71448 33.829 4.5411C34.5658 4.41107 35.0137 4.06432 35.3316 3.35637C35.6928 2.54728 35.5338 1.69485 34.8981 1.07359C34.3491 0.524564 33.2077 0.380085 32.442 0.784628Z" fill="white"/>
<path d="M1.79943 6.53433L2.7241 7.47345H9.05231H15.3805V6.53433V5.59521H8.12764H0.874756L1.79943 6.53433Z" fill="white"/>
<path d="M21.954 5.74026C20.5092 6.08701 19.3534 7.09837 18.8333 8.45648C18.3998 9.59787 18.2987 11.7073 18.6165 12.9353C19.1945 15.2181 20.6826 16.4606 22.8209 16.4751C24.0634 16.4895 25.0025 16.1139 25.8983 15.2326C26.5485 14.5824 26.5196 14.568 26.5774 15.7094C26.5918 15.9839 26.6207 16.3017 26.6352 16.3884C26.6496 16.5329 27.0686 16.5762 28.2389 16.5762H29.8282V11.3027V6.02922H28.1667H26.5051V6.75162V7.45957L25.7972 6.75162C24.8003 5.75471 23.3699 5.37906 21.954 5.74026ZM25.5516 8.75988C26.1584 9.09219 26.534 9.6701 26.6496 10.4358C26.953 12.4152 25.6383 13.9034 23.8467 13.6288C22.3441 13.3832 21.5495 11.8084 22.0263 10.0458C22.4308 8.62985 24.1935 7.97969 25.5516 8.75988Z" fill="white"/>
<path d="M49.4626 5.78344C47.411 6.36136 46.0673 7.95064 45.7206 10.1756C45.3305 12.6462 46.4141 14.9579 48.4368 15.9837C49.636 16.5905 51.442 16.6772 52.9879 16.186L53.667 15.9693V14.4667C53.667 13.6431 53.6525 12.9641 53.6381 12.9641C53.6092 12.9641 53.2769 13.123 52.8868 13.3253C52.0488 13.7587 51.4853 13.7732 50.7051 13.412C49.5059 12.8629 48.9858 11.736 49.3181 10.3346C49.7227 8.5719 51.2541 7.8784 52.8868 8.70193C53.2769 8.9042 53.6092 9.06313 53.6381 9.06313C53.6525 9.06313 53.667 8.41297 53.667 7.61833V6.17354L53.1324 5.94237C52.41 5.63896 50.315 5.53783 49.4626 5.78344Z" fill="white"/>
<path d="M58.0744 5.79805C57.0775 6.1159 56.5718 6.44821 55.9939 7.18505C55.127 8.2831 54.8958 9.12108 54.9103 11.086C54.9103 12.4586 54.9681 12.892 55.2426 13.5855C55.7194 14.7991 56.3695 15.5649 57.3231 16.0561C58.0166 16.4029 58.32 16.4751 59.2013 16.4751C60.5017 16.4751 61.4263 16.0994 62.3799 15.1603L63.0589 14.4957V15.536V16.5762H64.6482H66.2375V11.2305V5.88474H64.6482H63.0589V6.57824C63.0589 6.96833 63.0301 7.31509 62.9867 7.35843C62.9434 7.38733 62.5677 7.08392 62.1487 6.67937C61.5997 6.1448 61.1952 5.88474 60.7184 5.76915C59.8659 5.55243 58.8112 5.56688 58.0744 5.79805ZM62.0765 8.73099C62.9578 9.26556 63.3624 10.537 63.0589 11.8229C62.3654 14.6691 58.2911 13.99 58.2911 11.0138C58.2911 10.3492 58.5656 9.54007 58.9124 9.13553C59.577 8.35534 61.094 8.16752 62.0765 8.73099Z" fill="white"/>
<path d="M70.9326 5.78359C69.2133 6.36151 68.4042 7.32952 68.4042 8.83211C68.4042 10.4503 69.3 11.2738 71.8284 11.9673C73.2443 12.3574 73.6055 12.5886 73.6055 13.1232C73.6055 13.7011 73.1431 13.9756 72.1318 13.9756C71.1493 13.9756 70.1524 13.6722 69.2855 13.0798C68.9388 12.8486 68.6354 12.6897 68.592 12.7186C68.5631 12.762 68.3898 13.3543 68.2019 14.0478L67.8696 15.3048L68.7799 15.7382C71.3082 16.923 74.5879 16.7207 75.946 15.3192C76.5962 14.6402 76.7262 14.3657 76.8563 13.5277C77.0441 12.2707 76.4517 11.0715 75.3537 10.5225C75.0647 10.3636 74.2556 10.0746 73.5477 9.85791C72.0595 9.38113 71.4238 8.93325 71.6694 8.5287C72.1896 7.66182 73.9089 7.8063 75.7871 8.87545C75.8305 8.90435 76.0183 8.39867 76.2061 7.74851C76.5962 6.40485 76.6395 6.47709 75.1947 6.01476C74.01 5.62466 71.7561 5.50908 70.9326 5.78359Z" fill="white"/>
<path d="M92.8215 6.53433V7.47345H99.1497H105.478L106.403 6.53433L107.327 5.59521H100.074H92.8215V6.53433Z" fill="white"/>
<path d="M43.1184 5.87024C42.1793 6.1592 41.5291 6.69378 40.6333 7.93631C40.3877 8.25416 40.3877 8.23971 40.3733 7.14167V6.02917H38.6395H36.9058V11.3027V16.5906L38.7551 16.5473L40.59 16.5039V13.9756C40.6044 12.3574 40.6767 11.216 40.7923 10.8115C41.1679 9.52558 42.3238 8.84653 43.9708 8.94766L44.7799 8.99101L44.881 8.05189C44.9388 7.53176 45.0111 6.80936 45.0544 6.41927L45.1267 5.74021L44.3031 5.75466C43.8552 5.75466 43.3207 5.81245 43.1184 5.87024Z" fill="white"/>
<path d="M31.7048 11.3027V16.5762H33.5108H35.3168V11.3027V6.02922H33.5108H31.7048V11.3027Z" fill="white"/>
<path d="M6.34804 11.0851L7.20047 11.952H11.2892H15.378V11.0851V10.2183H10.4368H5.49561L6.34804 11.0851Z" fill="white"/>
<path d="M92.8215 11.0855V11.9524H96.9103H100.999L101.852 11.0855L102.704 10.2186H97.7627H92.8215V11.0855Z" fill="white"/>
<path d="M10.8882 15.6226L11.7985 16.5328L13.5467 16.5184L15.3093 16.5039L15.3527 15.5937L15.396 14.6979H12.6798H9.97803L10.8882 15.6226Z" fill="white"/>
<path d="M92.8495 15.5936L92.8928 16.5038L94.6266 16.5472L96.3604 16.5905L97.2995 15.6369L98.2241 14.6978H95.5224H92.8062L92.8495 15.5936Z" fill="white"/>
</g>
<defs>
<clipPath id="clip0_1_525">
<rect width="106.453" height="16.3406" fill="white" transform="translate(0.875 0.25)"/>
</clipPath>
</defs>
</svg>
