<svg width="274" height="120" viewBox="0 0 274 120" fill="none" xmlns="http://www.w3.org/2000/svg">
<path d="M274.932 0H0V60H274.932V0Z" fill="#FF267E"/>
<path d="M46.7514 28.8874H26.6405V23.0591H50.9529V15.0009H14.984V44.9993H26.6405V36.9426H46.7514V28.8874Z" fill="#000055"/>
<path d="M110.652 34.9726L99.9802 15.0009H86.6107L103.923 44.9993H117.209L134.522 15.0009H121.323L110.652 34.9726Z" fill="#000055"/>
<path d="M162.954 37.7983H149.001V33.2551H162.954C164.453 33.2551 165.524 34.1985 165.524 35.526C165.524 36.8549 164.453 37.7983 162.954 37.7983ZM149.001 22.2019H162.012C163.512 22.2019 164.583 23.1438 164.583 24.4712C164.583 25.8001 163.512 26.7435 162.012 26.7435H149.001V22.2019ZM171.859 29.7658C174.897 28.2856 176.325 25.9498 176.325 23.3146C176.325 18.3859 172.169 15.0009 163.983 15.0009H137.643V44.9993H164.583C173.369 44.9993 177.267 41.5281 177.267 36.5132C177.267 33.7087 175.57 31.1627 171.859 29.7658Z" fill="#000055"/>
<path d="M194.453 33.2567H214.522V26.745H194.453V23.0606H216.641V15.0009H182.797V45.0009H217.169V36.9426H194.453V33.2567Z" fill="#000055"/>
<path d="M222.003 15.0009V23.0576H235.081V44.9993H246.868V23.0576H259.947V15.0009H222.003Z" fill="#000055"/>
<path d="M66.0617 32.7819L71.1809 23.1256L76.2986 32.7819H66.0617ZM64.5166 15.0009L47.2027 44.9993H59.5879L61.9298 40.5817H80.432L82.7739 44.9993H95.6717L78.3593 15.0009H64.5166Z" fill="#000055"/>
<path d="M274.942 60H207V120H274.942V60Z" fill="#FF267E"/>
<path d="M218.456 89.9844L228.327 107.397L240.988 107.398L231.117 89.9859L218.456 89.9844Z" fill="#000055"/>
<path d="M250.855 89.9742L240.985 107.387L253.645 107.386L263.515 89.9732L250.855 89.9742Z" fill="#000055"/>
<path d="M240.959 72.6154L231.088 89.9882H250.829L240.959 72.6154Z" fill="#000055"/>
</svg>
