<svg width="36" height="27" viewBox="0 0 36 27" fill="none" xmlns="http://www.w3.org/2000/svg">
<path fill-rule="evenodd" clip-rule="evenodd" d="M11.021 20.5098C13.3213 20.5098 15.4449 19.7516 17.1549 18.4715C14.9857 16.4084 13.6335 13.4947 13.6335 10.265C13.6335 7.03505 14.9857 4.1213 17.1549 2.05849C15.4449 0.77815 13.3213 0.0198975 11.021 0.0198975C5.36278 0.0198975 0.775879 4.6068 0.775879 10.265C0.775879 15.9229 5.36278 20.5098 11.021 20.5098ZM24.957 0.0198975C22.6565 0.0198975 20.5331 0.77815 18.8231 2.05849C20.992 4.1213 22.3442 7.03505 22.3442 10.265C22.3442 13.4947 20.992 16.4084 18.8231 18.4715C20.5331 19.7516 22.6565 20.5098 24.957 20.5098C30.6149 20.5098 35.2018 15.9229 35.2018 10.265C35.2018 4.6068 30.6149 0.0198975 24.957 0.0198975ZM21.2658 10.265C21.2658 7.2978 20.0044 4.62523 17.989 2.75434C15.9733 4.62523 14.7119 7.2978 14.7119 10.265C14.7119 13.2319 15.9733 15.9045 17.989 17.7754C20.0044 15.9045 21.2658 13.2319 21.2658 10.265Z" fill="#EDEDED"/>
<path d="M6.25182 26.9172V25.0259C6.25182 24.3009 5.81155 23.828 5.05678 23.828C4.67939 23.828 4.27056 23.9541 3.98753 24.3639C3.76739 24.0172 3.4529 23.828 2.98117 23.828C2.66668 23.828 2.3522 23.9226 2.10061 24.2693V23.8911H1.44019V26.9172H2.10061V25.2465C2.10061 24.7106 2.38364 24.4585 2.82392 24.4585C3.2642 24.4585 3.48435 24.7422 3.48435 25.2465V26.9172H4.14477V25.2465C4.14477 24.7106 4.45925 24.4585 4.86808 24.4585C5.30837 24.4585 5.52851 24.7422 5.52851 25.2465V26.9172H6.25182ZM16.0324 23.8911H14.9631V22.9769H14.3027V23.8911H13.7052V24.49H14.3027V25.8769C14.3027 26.5704 14.5857 26.9802 15.3405 26.9802C15.6235 26.9802 15.938 26.8857 16.1581 26.7596L15.9694 26.1922C15.7808 26.3183 15.5606 26.3498 15.4034 26.3498C15.0889 26.3498 14.9631 26.1607 14.9631 25.8454V24.49H16.0324V23.8911ZM21.6302 23.828C21.2528 23.828 21.0012 24.0172 20.844 24.2693V23.8911H20.1836V26.9172H20.844V25.215C20.844 24.7106 21.0641 24.4269 21.473 24.4269C21.5988 24.4269 21.756 24.4585 21.8818 24.49L22.0705 23.8595C21.9447 23.828 21.756 23.828 21.6302 23.828ZM13.1705 24.1432C12.856 23.9226 12.4158 23.828 11.944 23.828C11.1893 23.828 10.6861 24.2063 10.6861 24.8052C10.6861 25.3096 11.0635 25.5933 11.7239 25.6878L12.0384 25.7193C12.3843 25.7824 12.573 25.8769 12.573 26.0346C12.573 26.2552 12.3214 26.4128 11.8811 26.4128C11.4408 26.4128 11.0949 26.2552 10.8748 26.0976L10.5603 26.602C10.9062 26.8541 11.378 26.9802 11.8497 26.9802C12.7302 26.9802 13.2334 26.5704 13.2334 26.003C13.2334 25.4672 12.8246 25.1835 12.1956 25.0889L11.8811 25.0574C11.5981 25.0259 11.378 24.9628 11.378 24.7737C11.378 24.553 11.5981 24.4269 11.944 24.4269C12.3214 24.4269 12.6988 24.5846 12.8875 24.6791L13.1705 24.1432ZM30.7189 23.828C30.3415 23.828 30.0899 24.0172 29.9327 24.2693V23.8911H29.2722V26.9172H29.9327V25.215C29.9327 24.7106 30.1528 24.4269 30.5616 24.4269C30.6874 24.4269 30.8447 24.4585 30.9705 24.49L31.1591 23.8595C31.0334 23.828 30.8447 23.828 30.7189 23.828ZM22.2906 25.4041C22.2906 26.3183 22.9196 26.9802 23.8945 26.9802C24.3348 26.9802 24.6493 26.8857 24.9638 26.6335L24.6493 26.0976C24.3977 26.2867 24.1461 26.3813 23.8631 26.3813C23.3284 26.3813 22.951 26.003 22.951 25.4041C22.951 24.8367 23.3284 24.4585 23.8631 24.4269C24.1461 24.4269 24.3977 24.5215 24.6493 24.7106L24.9638 24.1748C24.6493 23.9226 24.3348 23.828 23.8945 23.828C22.9196 23.828 22.2906 24.49 22.2906 25.4041ZM28.3917 25.4041V23.8911H27.7312V24.2693C27.5111 23.9856 27.1966 23.828 26.7878 23.828C25.9387 23.828 25.2782 24.49 25.2782 25.4041C25.2782 26.3183 25.9387 26.9802 26.7878 26.9802C27.2281 26.9802 27.5426 26.8226 27.7312 26.5389V26.9172H28.3917V25.4041ZM25.9701 25.4041C25.9701 24.8682 26.3161 24.4269 26.8821 24.4269C27.4168 24.4269 27.7941 24.8367 27.7941 25.4041C27.7941 25.94 27.4168 26.3813 26.8821 26.3813C26.3161 26.3498 25.9701 25.94 25.9701 25.4041ZM18.0765 23.828C17.1959 23.828 16.567 24.4585 16.567 25.4041C16.567 26.3498 17.196 26.9802 18.108 26.9802C18.5482 26.9802 18.9885 26.8541 19.3345 26.5704L19.02 26.0976C18.7684 26.2867 18.4539 26.4128 18.1394 26.4128C17.7306 26.4128 17.3217 26.2237 17.2274 25.6878H19.4602C19.4602 25.5933 19.4602 25.5302 19.4602 25.4356C19.4917 24.4585 18.9256 23.828 18.0765 23.828ZM18.0765 24.3954C18.4853 24.3954 18.7684 24.6476 18.8313 25.1204H17.2588C17.3217 24.7106 17.6048 24.3954 18.0765 24.3954ZM34.4613 25.4041V22.6932H33.8008V24.2693C33.5807 23.9856 33.2662 23.828 32.8574 23.828C32.0083 23.828 31.3478 24.49 31.3478 25.4041C31.3478 26.3183 32.0083 26.9802 32.8574 26.9802C33.2977 26.9802 33.6121 26.8226 33.8008 26.5389V26.9172H34.4613V25.4041ZM32.0397 25.4041C32.0397 24.8682 32.3856 24.4269 32.9517 24.4269C33.4863 24.4269 33.8637 24.8367 33.8637 25.4041C33.8637 25.94 33.4863 26.3813 32.9517 26.3813C32.3856 26.3498 32.0397 25.94 32.0397 25.4041ZM9.96277 25.4041V23.8911H9.30234V24.2693C9.0822 23.9856 8.76772 23.828 8.35889 23.828C7.50977 23.828 6.84935 24.49 6.84935 25.4041C6.84935 26.3183 7.50977 26.9802 8.35889 26.9802C8.79917 26.9802 9.11365 26.8226 9.30234 26.5389V26.9172H9.96277V25.4041ZM7.50977 25.4041C7.50977 24.8682 7.8557 24.4269 8.42178 24.4269C8.9564 24.4269 9.3338 24.8367 9.3338 25.4041C9.3338 25.94 8.9564 26.3813 8.42178 26.3813C7.8557 26.3498 7.50977 25.94 7.50977 25.4041Z" fill="#EDEDED"/>
</svg>
